PathFileType	4	(X/Y/Z)	C:/Users/beibeiliu/ov580/test_trc/User3\out6_training_dense_right.trc
DataRate	CameraRate	NumFrames	NumMarkers	Units	OrigDataRate	OrigDataStartFrame	OrigNumFrames
120	120	22	19	mm	120	251	500
Frame#	Time	ThumbCMC			ThumbMCP			ThumbIP			ThumbTip			IndexMCP			IndexPIP			IndexTip			MiddleMCP			MiddlePIP			MiddleTip			RingMCP			RingPIP			RingTip			PinkyMCP			PinkyPIP			PinkyTip			BackHand1			BackHand2			BackHand3	
		X0	Y0	Z0	X1	Y1	Z1	X2	Y2	Z2	X3	Y3	Z3	X4	Y4	Z4	X5	Y5	Z5	X6	Y6	Z6	X7	Y7	Z7	X8	Y8	Z8	X9	Y9	Z9	X10	Y10	Z10	X11	Y11	Z11	X12	Y12	Z12	X13	Y13	Z13	X14	Y14	Z14	X15	Y15	Z15	X16	Y16	Z16	X17	Y17	Z17	X18	Y18	Z18	
250	2.08333	103.183	61.9679	24.7542	85.7908	65.4739	2.75529	73.7914	71.3408	-24.8415	67.3177	70.5991	-44.8424	127.567	86.0499	-44.7331	126.979	89.9336	-65.8737	121.799	95.0893	-89.5305	156.072	75.3952	-45.6006	158.625	80.03	-74.1554	157.423	81.3371	-105.476	172.195	55.9389	-37.3094	177.46	58.2234	-62.5876	180.801	57.9609	-92.1449	183.624	34.7099	-25.2533	194.079	29.6132	-45.446	201.268	23.577	-65.9748	166.058	58.5507	15.865	163.248	52.4664	41.703	137.73	73.3139	22.6547	
251	2.09167	127.086	73.9312	23.9613	116.11	78.5104	-0.328219	107.057	85.421	-27.4419	100.85	90.1777	-51.915	161.729	86.1187	-40.9752	160.485	93.9339	-69.8839	163.007	94.8196	-97.3259	183.507	70.8359	-45.4542	187.487	71.6673	-75.7745	186.769	73.3181	-105.325	193.43	48.4136	-38.8032	201.53	44.7259	-62.7327	201.43	42.3657	-91.6201	200.205	21.3003	-24.2603	205.187	14.1825	-45.6003	211.917	6.68254	-66.4817	189.378	52.0329	13.6424	184.339	43.1433	41.7125	164.994	72.337	22.3222	
252	2.1	155.906	76.718	22.161	149.451	88.8611	-6.00175	143.906	94.2539	-33.0534	139.553	94.5355	-52.7684	198.072	71.588	-43.1851	198.084	79.2988	-71.6079	198.003	83.9936	-98.3913	210.232	51.7937	-46.9607	214.257	50.0308	-73.2349	211.912	50.5851	-109.353	210.979	29.0524	-38.2458	217.898	23.2998	-62.3543	217.324	19.1068	-91.3792	206.58	6.19926	-25.4507	209.606	-8.61733	-43.0183	210.582	-20.0891	-63.6351	208.176	32.5429	15.9531	199.697	29.1511	43.9595	192.856	61.4207	23.6397	
253	2.10833	186.594	71.5059	19.8085	181.48	82.1113	-3.25799	181.228	91.691	-36.9912	177.671	96.09	-56.4624	222.196	56.0379	-44.1936	224.909	60.2346	-70.9134	226.39	62.8149	-93.8835	227.33	30.7747	-46.7059	231.394	25.5535	-76.9691	229.207	26.7351	-108.921	221.243	5.03602	-38.6986	223.424	0.77254	-61.4699	222.562	-4.75218	-90.2092	206.228	-15.8647	-23.4162	205.17	-25.4362	-41.5033	200.888	-38.1739	-62.8558	217.244	12.5194	14.0593	211.42	16.6956	44.0209	214.967	44.9634	24.5379	
254	2.11667	210.24	56.4528	22.8508	210.323	67.4041	-5.11151	213.228	75.9671	-33.1973	212.375	78.8166	-56.6527	242.873	29.4019	-46.3521	245.122	32.8277	-68.3862	250.598	38.4295	-97.3006	238.96	5.46475	-44.744	241.581	0.581729	-74.6413	239.377	-2.017	-108.265	225.116	-15.2492	-37.7166	227.018	-21.5881	-62.1824	223.037	-27.5056	-89.9602	202.909	-33.3657	-21.8714	197.835	-39.3819	-45.2443	187.381	-47.074	-61.8283	223.565	-8.79166	18.4931	219.753	-0.910419	42.7947	231.413	27.0401	26.0896	
255	2.125	232.418	43.8657	26.7424	237.319	53.3279	-4.36777	242.507	64.3867	-31.2839	244.504	69.6704	-53.7393	259.221	10.3056	-38.3671	266.604	13.6378	-65.5852	272.204	14.784	-92.9561	250.186	-16.6992	-42.9994	252.066	-21.7013	-69.9514	251.33	-23.084	-99.6797	229.937	-29.8742	-33.0256	230.576	-39.4851	-62.073	227.32	-42.1402	-85.2527	202.863	-42.8571	-20.3009	193.67	-48.1055	-41.0114	183.96	-51.7624	-59.5167	230.194	-23.4701	17.026	224.467	-16.3054	48.7115	245.625	9.40011	26.8786	
256	2.13333	251.285	28.0074	27.5739	256.399	39.9054	1.23553	265.394	48.8428	-24.9904	267.831	54.4512	-43.9831	274.828	-7.44931	-35.3371	284.856	-3.67312	-57.3362	291.167	-3.70385	-83.1066	259.387	-32.6383	-35.316	263.5	-37.5904	-64.9056	266.643	-37.2363	-97.667	242.143	-39.7511	-34.7588	236.829	-49.223	-56.4202	236.572	-51.3937	-82.6689	207.612	-47.3652	-23.2992	198.911	-47.6177	-43.478	187.243	-50.0393	-58.5871	239.114	-32.9501	21.2213	232.685	-28.0236	48.7699	255.629	-9.19705	34.8595	
257	2.14167	267.19	21.0337	37.0349	272.988	29.8751	9.54357	285.195	42.341	-14.5681	290.709	45.9492	-37.2931	292.436	-16.5303	-28.4148	300.34	-18.4635	-55.0751	308.689	-16.7653	-76.1068	275.458	-40.3306	-32.1524	278.339	-45.0047	-58.9079	280.074	-46.3656	-92.6296	252.453	-46.3032	-30.0564	249.761	-53.2828	-56.173	249.042	-53.1106	-81.6475	216.865	-46.405	-22.2045	207.788	-45.155	-40.9235	195.56	-41.8216	-64.1075	244.858	-42.1438	21.2458	237.071	-36.9389	50.9143	265.034	-18.4063	39.3384	
258	2.15	276.942	12.9021	43.0769	292.156	26.3014	15.8775	301.962	35.0583	-7.82114	308.587	41.5251	-30.8335	302.205	-27.9515	-19.6798	314.951	-27.3718	-47.5348	320.834	-25.5666	-67.8068	281.578	-48.3851	-27.0816	292.281	-51.3225	-57.5711	292.591	-49.309	-89.2619	258.311	-52.8684	-28.9985	261.042	-55.5054	-54.8412	257.822	-50.0814	-83.5447	229.111	-44.8636	-19.1046	216.545	-41.6104	-43.2712	212.673	-32.0519	-65.6267	252.605	-47.1506	26.7834	238.977	-41.9529	51.5494	275.655	-26.6064	43.436	
259	2.15833	287.052	7.07099	48.6398	299.07	18.6448	21.7644	312.333	28.1932	-1.21079	317.855	35.4258	-22.7314	314.318	-32.2071	-14.2432	326.12	-30.7103	-39.0728	334.953	-26.3363	-64.3971	289.814	-53.1363	-25.0224	301.246	-53.2899	-51.4119	299.493	-50.2833	-82.1014	268.694	-51.2617	-22.012	267.613	-53.2939	-48.7279	268.458	-43.257	-77.072	234.431	-45.272	-21.1941	229.699	-35.5913	-45.2938	226.567	-23.521	-62.6071	255.403	-51.3427	27.0946	240.71	-42.2181	56.3828	280.768	-28.8679	50.2257	
260	2.16667	290.367	5.65587	54.6447	302.632	17.0849	30.5204	318.739	26.6132	4.5309	321.948	31.4025	-21.8676	314.727	-37.973	-10.5537	327.393	-36.4997	-33.7459	336.305	-24.549	-60.3719	292.385	-53.275	-15.5577	302.899	-56.9858	-46.1422	304.838	-44.991	-78.5741	271.664	-51.3406	-20.3791	273.861	-50.6984	-49.5826	270.998	-34.0296	-74.8088	239.602	-43.0112	-20.2872	236.757	-31.6759	-40.9245	236.043	-11.4753	-56.2479	254.456	-48.7592	32.6336	243.76	-41.9138	59.1809	281.002	-35.1112	50.3387	
261	2.175	287.84	1.52121	58.0905	305.34	14.2616	30.221	315.561	20.8772	1.52244	308.908	21.2627	-22.3488	314.389	-40.1087	-4.00758	331.837	-37.3911	-27.6887	332.328	-22.1297	-54.7637	295.295	-56.1197	-14.056	300.851	-56.8123	-45.1001	303.136	-35.4081	-76.1213	270.828	-53.1082	-19.1504	271.004	-49.5344	-46.0558	270.891	-22.5656	-68.1227	242.431	-41.1328	-13.5683	239.658	-27.489	-39.4104	245.793	-0.362313	-48.626	254.602	-51.0832	33.1108	244.721	-42.0849	60.9174	279.154	-34.6292	54.8312	
262	2.18333	288.037	-0.0984927	57.1382	301.377	15.5203	34.3322	311.421	22.1414	4.38079	298.657	19.4257	-21.5948	313.248	-42.2049	-3.96146	324.308	-38.7699	-30.2686	323.6	-16.8501	-52.4767	289.099	-56.6519	-13.9713	298.546	-53.5497	-46.9807	294.69	-26.4734	-68.2275	267.42	-52.0418	-15.6016	270.901	-43.1743	-46.6552	263.75	-13.0052	-58.9456	241.212	-39.8938	-15.4389	241.533	-24.4439	-37.0839	242.486	2.60338	-38.4037	248.002	-50.5961	35.7689	239.287	-46.1764	61.5629	276.708	-38.8448	53.9081	
263	2.19167	283.937	-1.58613	56.0834	297.609	12.6946	31.3516	301.77	16.8852	-1.77404	286.027	14.7036	-22.5443	308.625	-42.6596	-3.62561	322.258	-34.7973	-31.7374	316.022	-10.9123	-46.9139	284.433	-55.1448	-12.8942	293.377	-50.4151	-44.4642	288.623	-14.1349	-60.8946	264.616	-51.4461	-16.9818	262.695	-39.8323	-46.5401	256.859	-7.75794	-48.7242	237.062	-39.3109	-14.5517	238.894	-18.4209	-34.2591	241.214	8.65069	-28.5328	247.234	-51.1609	35.4612	236.377	-46.6465	62.3825	272.082	-36.5726	56.3382	
264	2.2	280.117	-0.380234	60.9778	291.655	12.3066	32.4913	294.148	16.1083	-3.04494	274.286	12.8675	-17.7647	301.979	-42.7563	-6.50169	314.492	-32.8091	-32.0393	303.341	-6.05611	-43.6466	279.873	-54.2782	-16.074	286.426	-45.0127	-47.7418	276.459	-5.65477	-53.1845	256.464	-49.4142	-18.1311	260.707	-31.9667	-45.5978	250.758	1.153	-36.5033	235.228	-36.0542	-14.7233	236.481	-12.4717	-32.0601	238.748	12.6397	-13.3162	239.367	-51.6111	34.332	233.259	-46.1762	59.2553	267.748	-38.0486	55.5195	
265	2.20833	274.308	-5.21074	56.2489	288.95	10.3113	29.1736	289.836	16.2038	-3.98981	266.275	11.9912	-21.5831	294.115	-42.8035	-7.52923	306.026	-31.1704	-35.4575	295.276	0.956839	-39.6341	276.284	-53.5902	-20.1719	281.07	-39.9813	-47.4603	267.978	-3.33697	-46.5262	253.727	-45.4517	-21.1323	251.279	-24.5206	-46.0349	247.658	2.12035	-32.6194	228.123	-31.8376	-19.1985	231.296	-8.11448	-28.7469	229.264	11.9952	-2.90071	236.463	-51.4684	28.342	226.729	-46.9893	61.9334	264.428	-40.6797	54.198	
266	2.21667	275.216	-5.17723	56.1605	284.86	10.1798	30.6763	284.406	15.711	0.4938	263.303	15.391	-21.6558	288.3	-41.5429	-6.81645	301.897	-25.5769	-37.3035	289.696	2.6291	-37.4684	270.302	-50.7281	-22.7638	276.882	-33.7028	-50.0058	268.167	2.87292	-41.5734	250.815	-42.3515	-22.1773	245.145	-22.6667	-44.1524	243.324	6.72421	-24.7918	226.715	-28.4651	-14.4526	224.378	0.587941	-23.9501	229.729	14.076	4.78408	232.203	-51.9009	29.6159	223.182	-46.409	55.5593	257.687	-40.426	52.6954	
267	2.225	267.769	-6.43077	57.9821	283.219	9.70885	29.6466	283.298	18.98	0.067165	262.178	18.996	-17.9124	289.759	-38.1341	-9.02833	295.263	-25.634	-38.6143	283.322	8.53111	-34.5793	268.903	-46.5141	-23.8553	271.251	-28.2385	-50.8742	262.735	6.92679	-40.506	245.042	-38.1476	-25.5689	246.263	-12.2534	-43.5069	242.796	12.0749	-18.6749	223.12	-22.2869	-16.1169	222.146	5.66639	-21.0797	224.534	13.803	11.1888	229.107	-50.7414	24.7049	219.731	-47.9664	54.6023	257.259	-41.8404	47.778	
268	2.23333	268.57	-7.07524	60.1101	284.48	12.1308	30.2669	282.531	21.7523	4.54245	261.401	22.7461	-19.772	282.444	-38.342	-15.6619	294.056	-19.0521	-39.4953	283.455	10.2804	-33.8717	261.681	-42.2062	-26.6364	269.077	-23.3668	-50.8439	254.283	13.2567	-36.6505	241.888	-32.7049	-27.422	242.123	-5.11944	-42.4701	239.579	15.8035	-17.7685	217.058	-17.2253	-17.3235	220.915	12.8646	-15.8654	218.631	17.4271	15.0738	226.588	-47.5724	23.6614	213.494	-44.5253	54.9884	253.564	-40.7545	51.6598	
269	2.24167	263.776	-8.65622	56.61	280.847	9.28621	32.885	283.108	23.4281	5.51922	263.434	27.6618	-15.0924	280.085	-34.0052	-13.6192	286.439	-15.9182	-42.1654	278.018	12.1619	-36.852	258.41	-36.6842	-25.061	259.664	-13.6219	-52.9438	249.796	20.0706	-34.2821	233.493	-27.4105	-24.8425	236.21	-0.775173	-41.916	234.73	22.0237	-17.6965	210.909	-11.3819	-17.4421	216.061	16.4191	-14.0797	215.795	19.9901	16.1251	222.131	-46.6814	23.3194	213.167	-46.1124	52.0472	250.838	-41.7582	48.3941	
270	2.25	266.153	-9.99879	59.0305	281.824	9.84739	37.5169	282.278	22.3942	11.7101	265.597	29.0555	-9.94593	272.378	-31.6902	-15.8899	281.018	-12.5512	-42.9519	276.166	16.6655	-38.8944	254.349	-31.937	-27.3973	256.265	-9.55532	-52.1651	252.048	28.2512	-32.9711	230.322	-20.7291	-26.6084	233.403	9.32485	-39.3046	231.94	30.4066	-13.4437	207.514	-8.56872	-15.3238	211.051	19.9485	-13.8588	218.269	24.7013	14.7659	217.479	-42.5247	26.2	210.788	-45.5309	55.6957	244.897	-43.116	49.3286	
271	2.25833	262.46	-10.3244	60.7752	281.321	8.17489	38.613	287.182	22.7707	13.1807	270.996	29.5606	-10.4754	270.163	-27.6642	-15.0794	280.118	-11.2447	-42.1871	273.452	22.6151	-41.7164	248.898	-27.8056	-27.4985	251.776	-5.91542	-52.8098	247.779	30.2664	-39.7673	226.203	-18.2139	-24.4344	225.22	11.3291	-40.1061	228.188	36.1682	-19.8594	206.08	-5.78261	-14.2242	209.879	24.7291	-12.9281	217.079	34.282	11.7049	216.33	-43.238	21.8155	202.43	-42.295	55.0016	243.464	-42.4844	47.7424	
